<mxfile host="app.diagrams.net" modified="2021-06-28T03:21:52.385Z" agent="5.0 (Windows NT 10.0; WOW64) AppleWebKit/537.36 (KHTML, like Gecko) Chrome/91.0.4472.77 Safari/537.36" etag="Ov_xryl-8t8KQ1in8h8w" version="14.8.1" type="github">
  <diagram id="UHBSIkyB_U_D9ZAi8K-w" name="Page-1">
    <mxGraphModel dx="782" dy="1676" grid="1" gridSize="10" guides="1" tooltips="1" connect="1" arrows="1" fold="1" page="1" pageScale="1" pageWidth="827" pageHeight="1169" math="0" shadow="0">
      <root>
        <mxCell id="0" />
        <mxCell id="1" parent="0" />
        <mxCell id="kL1pxz-XWUR2z7Ilot9B-1" value="Text" style="text;html=1;align=center;verticalAlign=middle;resizable=0;points=[];autosize=1;strokeColor=none;" vertex="1" parent="1">
          <mxGeometry x="170" y="-400" width="40" height="20" as="geometry" />
        </mxCell>
        <mxCell id="kL1pxz-XWUR2z7Ilot9B-2" value="Classname" style="swimlane;fontStyle=0;childLayout=stackLayout;horizontal=1;startSize=26;fillColor=none;horizontalStack=0;resizeParent=1;resizeParentMax=0;resizeLast=0;collapsible=1;marginBottom=0;" vertex="1" parent="1">
          <mxGeometry x="414" y="-320" width="140" height="104" as="geometry" />
        </mxCell>
        <mxCell id="kL1pxz-XWUR2z7Ilot9B-3" value="+ field: type" style="text;strokeColor=none;fillColor=none;align=left;verticalAlign=top;spacingLeft=4;spacingRight=4;overflow=hidden;rotatable=0;points=[[0,0.5],[1,0.5]];portConstraint=eastwest;" vertex="1" parent="kL1pxz-XWUR2z7Ilot9B-2">
          <mxGeometry y="26" width="140" height="26" as="geometry" />
        </mxCell>
        <mxCell id="kL1pxz-XWUR2z7Ilot9B-4" value="+ field: type" style="text;strokeColor=none;fillColor=none;align=left;verticalAlign=top;spacingLeft=4;spacingRight=4;overflow=hidden;rotatable=0;points=[[0,0.5],[1,0.5]];portConstraint=eastwest;" vertex="1" parent="kL1pxz-XWUR2z7Ilot9B-2">
          <mxGeometry y="52" width="140" height="26" as="geometry" />
        </mxCell>
        <mxCell id="kL1pxz-XWUR2z7Ilot9B-5" value="+ field: type" style="text;strokeColor=none;fillColor=none;align=left;verticalAlign=top;spacingLeft=4;spacingRight=4;overflow=hidden;rotatable=0;points=[[0,0.5],[1,0.5]];portConstraint=eastwest;" vertex="1" parent="kL1pxz-XWUR2z7Ilot9B-2">
          <mxGeometry y="78" width="140" height="26" as="geometry" />
        </mxCell>
        <mxCell id="kL1pxz-XWUR2z7Ilot9B-6" value="Classname" style="swimlane;fontStyle=1;align=center;verticalAlign=top;childLayout=stackLayout;horizontal=1;startSize=26;horizontalStack=0;resizeParent=1;resizeParentMax=0;resizeLast=0;collapsible=1;marginBottom=0;" vertex="1" parent="1">
          <mxGeometry x="220" y="-330" width="160" height="86" as="geometry" />
        </mxCell>
        <mxCell id="kL1pxz-XWUR2z7Ilot9B-7" value="+ field: type" style="text;strokeColor=none;fillColor=none;align=left;verticalAlign=top;spacingLeft=4;spacingRight=4;overflow=hidden;rotatable=0;points=[[0,0.5],[1,0.5]];portConstraint=eastwest;" vertex="1" parent="kL1pxz-XWUR2z7Ilot9B-6">
          <mxGeometry y="26" width="160" height="26" as="geometry" />
        </mxCell>
        <mxCell id="kL1pxz-XWUR2z7Ilot9B-8" value="" style="line;strokeWidth=1;fillColor=none;align=left;verticalAlign=middle;spacingTop=-1;spacingLeft=3;spacingRight=3;rotatable=0;labelPosition=right;points=[];portConstraint=eastwest;" vertex="1" parent="kL1pxz-XWUR2z7Ilot9B-6">
          <mxGeometry y="52" width="160" height="8" as="geometry" />
        </mxCell>
        <mxCell id="kL1pxz-XWUR2z7Ilot9B-9" value="+ method(type): type" style="text;strokeColor=none;fillColor=none;align=left;verticalAlign=top;spacingLeft=4;spacingRight=4;overflow=hidden;rotatable=0;points=[[0,0.5],[1,0.5]];portConstraint=eastwest;" vertex="1" parent="kL1pxz-XWUR2z7Ilot9B-6">
          <mxGeometry y="60" width="160" height="26" as="geometry" />
        </mxCell>
        <mxCell id="kL1pxz-XWUR2z7Ilot9B-10" value="Object" style="html=1;" vertex="1" parent="1">
          <mxGeometry x="530" y="-430" width="110" height="50" as="geometry" />
        </mxCell>
        <mxCell id="kL1pxz-XWUR2z7Ilot9B-11" value="&amp;laquo;interface&amp;raquo;&lt;br&gt;&lt;b&gt;Name&lt;/b&gt;" style="html=1;" vertex="1" parent="1">
          <mxGeometry x="640" y="-282" width="110" height="50" as="geometry" />
        </mxCell>
        <mxCell id="kL1pxz-XWUR2z7Ilot9B-12" value="Classname" style="swimlane;fontStyle=1;align=center;verticalAlign=top;childLayout=stackLayout;horizontal=1;startSize=26;horizontalStack=0;resizeParent=1;resizeParentMax=0;resizeLast=0;collapsible=1;marginBottom=0;" vertex="1" parent="1">
          <mxGeometry x="100" y="-120" width="160" height="86" as="geometry" />
        </mxCell>
        <mxCell id="kL1pxz-XWUR2z7Ilot9B-13" value="+ field: type" style="text;strokeColor=none;fillColor=none;align=left;verticalAlign=top;spacingLeft=4;spacingRight=4;overflow=hidden;rotatable=0;points=[[0,0.5],[1,0.5]];portConstraint=eastwest;" vertex="1" parent="kL1pxz-XWUR2z7Ilot9B-12">
          <mxGeometry y="26" width="160" height="26" as="geometry" />
        </mxCell>
        <mxCell id="kL1pxz-XWUR2z7Ilot9B-14" value="" style="line;strokeWidth=1;fillColor=none;align=left;verticalAlign=middle;spacingTop=-1;spacingLeft=3;spacingRight=3;rotatable=0;labelPosition=right;points=[];portConstraint=eastwest;" vertex="1" parent="kL1pxz-XWUR2z7Ilot9B-12">
          <mxGeometry y="52" width="160" height="8" as="geometry" />
        </mxCell>
        <mxCell id="kL1pxz-XWUR2z7Ilot9B-15" value="+ method(type): type" style="text;strokeColor=none;fillColor=none;align=left;verticalAlign=top;spacingLeft=4;spacingRight=4;overflow=hidden;rotatable=0;points=[[0,0.5],[1,0.5]];portConstraint=eastwest;" vertex="1" parent="kL1pxz-XWUR2z7Ilot9B-12">
          <mxGeometry y="60" width="160" height="26" as="geometry" />
        </mxCell>
        <mxCell id="kL1pxz-XWUR2z7Ilot9B-16" value="&amp;laquo;Annotation&amp;raquo;&lt;br/&gt;&lt;b&gt;Component&lt;/b&gt;" style="html=1;dropTarget=0;" vertex="1" parent="1">
          <mxGeometry x="324" y="-90" width="180" height="90" as="geometry" />
        </mxCell>
        <mxCell id="kL1pxz-XWUR2z7Ilot9B-17" value="" style="shape=module;jettyWidth=8;jettyHeight=4;" vertex="1" parent="kL1pxz-XWUR2z7Ilot9B-16">
          <mxGeometry x="1" width="20" height="20" relative="1" as="geometry">
            <mxPoint x="-27" y="7" as="offset" />
          </mxGeometry>
        </mxCell>
        <mxCell id="kL1pxz-XWUR2z7Ilot9B-18" value="+ item: attribute" style="text;strokeColor=none;fillColor=none;align=left;verticalAlign=top;spacingLeft=4;spacingRight=4;overflow=hidden;rotatable=0;points=[[0,0.5],[1,0.5]];portConstraint=eastwest;" vertex="1" parent="1">
          <mxGeometry x="60" y="-370" width="100" height="26" as="geometry" />
        </mxCell>
        <mxCell id="kL1pxz-XWUR2z7Ilot9B-19" value="&amp;laquo;Annotation&amp;raquo;&lt;br/&gt;&lt;b&gt;Component&lt;/b&gt;" style="html=1;dropTarget=0;" vertex="1" parent="1">
          <mxGeometry x="50" y="-244" width="180" height="90" as="geometry" />
        </mxCell>
        <mxCell id="kL1pxz-XWUR2z7Ilot9B-20" value="" style="shape=module;jettyWidth=8;jettyHeight=4;" vertex="1" parent="kL1pxz-XWUR2z7Ilot9B-19">
          <mxGeometry x="1" width="20" height="20" relative="1" as="geometry">
            <mxPoint x="-27" y="7" as="offset" />
          </mxGeometry>
        </mxCell>
        <mxCell id="kL1pxz-XWUR2z7Ilot9B-21" value="" style="line;strokeWidth=1;fillColor=none;align=left;verticalAlign=middle;spacingTop=-1;spacingLeft=3;spacingRight=3;rotatable=0;labelPosition=right;points=[];portConstraint=eastwest;" vertex="1" parent="1">
          <mxGeometry x="50" y="-286" width="40" height="8" as="geometry" />
        </mxCell>
        <mxCell id="kL1pxz-XWUR2z7Ilot9B-22" value="Title" style="text;align=center;fontStyle=1;verticalAlign=middle;spacingLeft=3;spacingRight=3;strokeColor=none;rotatable=0;points=[[0,0.5],[1,0.5]];portConstraint=eastwest;" vertex="1" parent="1">
          <mxGeometry x="410" y="-180" width="80" height="26" as="geometry" />
        </mxCell>
        <mxCell id="kL1pxz-XWUR2z7Ilot9B-23" value="Block" style="verticalAlign=top;align=left;spacingTop=8;spacingLeft=2;spacingRight=12;shape=cube;size=10;direction=south;fontStyle=4;html=1;" vertex="1" parent="1">
          <mxGeometry x="600" y="-150" width="180" height="120" as="geometry" />
        </mxCell>
      </root>
    </mxGraphModel>
  </diagram>
</mxfile>
